%TF.GenerationSoftware,KiCad,Pcbnew,(5.1.10-1-10_14)*%
%TF.CreationDate,2021-05-16T00:29:08-07:00*%
%TF.ProjectId,USB-C-to-C Power Mod,5553422d-432d-4746-9f2d-4320506f7765,rev?*%
%TF.SameCoordinates,Original*%
%TF.FileFunction,Profile,NP*%
%FSLAX46Y46*%
G04 Gerber Fmt 4.6, Leading zero omitted, Abs format (unit mm)*
G04 Created by KiCad (PCBNEW (5.1.10-1-10_14)) date 2021-05-16 00:29:08*
%MOMM*%
%LPD*%
G01*
G04 APERTURE LIST*
%TA.AperFunction,Profile*%
%ADD10C,0.254000*%
%TD*%
G04 APERTURE END LIST*
D10*
X143933000Y-98487000D02*
X143328600Y-98487000D01*
X146329000Y-98487000D02*
X146329000Y-97860000D01*
X143328600Y-97860000D02*
X142133000Y-97860000D01*
X146329000Y-97860000D02*
X143933000Y-97860000D01*
X147629000Y-97860000D02*
X146933000Y-97860000D01*
X148762000Y-98487000D02*
X148762000Y-94479000D01*
X148762000Y-94479000D02*
X141000000Y-94479000D01*
X141000000Y-98487000D02*
X141000000Y-94479000D01*
X143328600Y-98487000D02*
X143328600Y-97860000D01*
X142133000Y-98487000D02*
X141000000Y-98487000D01*
X146933000Y-98487000D02*
X146933000Y-97860000D01*
X147629000Y-98487000D02*
X147629000Y-97860000D01*
X143933000Y-98487000D02*
X143933000Y-97860000D01*
X146933000Y-98487000D02*
X146329000Y-98487000D01*
X148762000Y-98487000D02*
X147629000Y-98487000D01*
X142133000Y-98487000D02*
X142133000Y-97860000D01*
X147629000Y-89783000D02*
X148762000Y-89783000D01*
X147629000Y-89783000D02*
X147629000Y-90410000D01*
X146433400Y-89783000D02*
X146433400Y-90410000D01*
X145829000Y-89783000D02*
X146433400Y-89783000D01*
X145829000Y-89783000D02*
X145829000Y-90410000D01*
X143433000Y-89783000D02*
X143433000Y-90410000D01*
X142829000Y-89783000D02*
X143433000Y-89783000D01*
X142829000Y-89783000D02*
X142829000Y-90410000D01*
X142133000Y-89783000D02*
X142133000Y-90410000D01*
X141000000Y-89783000D02*
X142133000Y-89783000D01*
X148762000Y-89783000D02*
X148762000Y-93791000D01*
X141000000Y-93791000D02*
X148762000Y-93791000D01*
X141000000Y-89783000D02*
X141000000Y-93791000D01*
X142133000Y-90410000D02*
X142829000Y-90410000D01*
X143433000Y-90410000D02*
X145829000Y-90410000D01*
X146433400Y-90410000D02*
X147629000Y-90410000D01*
M02*
